<svg width="9" height="16" viewBox="0 0 9 16" fill="none" xmlns="http://www.w3.org/2000/svg">
<path d="M1.22083 8.94236H2.95702V15.7658C2.95702 15.9006 3.07137 16.0097 3.2125 16.0097H6.15634C6.29745 16.0097 6.41179 15.9006 6.41179 15.7658V8.97452H8.40775C8.53752 8.97452 8.64672 8.88156 8.66155 8.75849L8.96467 6.24644C8.97301 6.17734 8.9501 6.10811 8.90164 6.05626C8.85317 6.00437 8.78376 5.97466 8.71094 5.97466H6.41192V4.39996C6.41192 3.92529 6.67965 3.68457 7.20778 3.68457C7.28303 3.68457 8.71094 3.68457 8.71094 3.68457C8.85209 3.68457 8.96643 3.57536 8.96643 3.4407V1.13484C8.96643 1.00011 8.85209 0.890962 8.71094 0.890962H6.63933C6.62473 0.890282 6.59227 0.88916 6.54444 0.88916C6.18499 0.88916 4.9356 0.956523 3.94866 1.82327C2.85513 2.78378 3.00717 3.9338 3.04348 4.1332V5.9746H1.2208C1.07967 5.9746 0.965332 6.08375 0.965332 6.21848V8.69846C0.965364 8.83315 1.0797 8.94236 1.22083 8.94236Z" fill="#385C8E"/>
</svg>
