<svg width="48" height="55" viewBox="0 0 48 55" fill="none" xmlns="http://www.w3.org/2000/svg">
<path d="M38.41 11.4742L35.8005 14.8265C41.4254 19.2033 44.2311 26.2892 43.1237 33.321C42.3125 38.4808 39.54 43.0159 35.3176 46.0915C31.0937 49.1655 25.927 50.415 20.7672 49.5996C10.1156 47.9225 2.81224 37.8926 4.48658 27.2403C5.29779 22.0799 8.07115 17.5446 12.2941 14.4697C15.9811 11.7857 20.387 10.4966 24.8799 10.7523L21.2077 14.6048L23.9319 17.2046L29.7287 11.1188L29.7301 11.121L32.327 8.39403L29.6048 5.7971L29.6034 5.79794L23.5199 0L20.921 2.72701L24.8849 6.50252C19.4965 6.24765 14.2186 7.81508 9.79434 11.0365C4.65435 14.779 1.27943 20.2989 0.291241 26.5809C-1.74711 39.546 7.14158 51.7558 20.1067 53.7961C21.3598 53.9937 22.6123 54.0906 23.8568 54.0906C28.8508 54.0906 33.7032 52.5209 37.8173 49.5248C42.9579 45.7817 46.3323 40.2618 47.3204 33.9812C48.6685 25.4241 45.2539 16.7995 38.41 11.4742Z" fill="#FF6875"/>
<path d="M26.1376 42.4226L26.1379 39.9772C29.0363 39.6537 31.8563 37.8228 31.8563 34.3468C31.8563 29.6239 27.4647 29.0823 24.257 28.6873C22.2061 28.4422 20.6364 28.1578 20.6364 26.9153C20.6364 25.1879 23.0712 25.0017 24.1183 25.0017C25.6723 25.0017 27.3305 25.7322 27.8938 26.6646L28.0574 26.9356L31.2793 25.4447L31.1199 25.1198C29.9193 22.6652 27.7676 21.955 26.1371 21.6684V19.5161H22.3644V21.6591C18.8521 22.1772 16.7663 24.1266 16.7663 26.9153C16.7663 31.4626 20.8952 31.924 23.9075 32.2618C26.5921 32.5784 27.8419 33.2416 27.8419 34.3468C27.8419 36.458 24.918 36.623 24.0217 36.623C22.0266 36.623 20.103 35.6275 19.5466 34.3058L19.4085 33.9794L15.9082 35.4634L16.0478 35.7897C17.0843 38.2158 19.3208 39.7361 22.3649 40.0956V42.4226H26.1376Z" fill="#FF6875"/>
</svg>
