<svg width="16" height="13" viewBox="0 0 16 13" fill="none" xmlns="http://www.w3.org/2000/svg">
<path d="M15.4114 2.2943C14.8417 2.53285 14.2347 2.69097 13.6019 2.76775C14.2529 2.39667 14.7498 1.81355 14.9834 1.11071C14.3764 1.45619 13.7062 1.70022 12.992 1.8364C12.4156 1.25055 11.5942 0.887695 10.698 0.887695C8.95937 0.887695 7.55963 2.2349 7.55963 3.88646C7.55963 4.12409 7.5807 4.35258 7.6324 4.57011C5.02153 4.44855 2.7113 3.25398 1.15933 1.43425C0.888384 1.88302 0.729453 2.39667 0.729453 2.94963C0.729453 3.9879 1.28954 4.90828 2.1244 5.44113C1.61985 5.43199 1.12486 5.29216 0.705518 5.07188C0.705518 5.08102 0.705518 5.0929 0.705518 5.10478C0.705518 6.56167 1.7941 7.77177 3.2216 8.05053C2.96597 8.11725 2.68736 8.14924 2.39822 8.14924C2.19717 8.14924 1.99419 8.13827 1.80367 8.09806C2.21057 9.28531 3.36521 10.1582 4.73814 10.1865C3.66967 10.9844 2.31301 11.4651 0.844342 11.4651C0.586798 11.4651 0.339786 11.4542 0.0927734 11.424C1.48389 12.2804 3.13256 12.7694 4.91047 12.7694C10.6894 12.7694 13.8489 8.19951 13.8489 4.23834C13.8489 4.10581 13.8441 3.97785 13.8374 3.85081C14.4607 3.42855 14.9844 2.90119 15.4114 2.2943Z" fill="#03A9F4"/>
</svg>
